<?xml version="1.0" encoding="utf-8"?>
<!-- Generator: Adobe Illustrator 18.0.0, SVG Export Plug-In . SVG Version: 6.00 Build 0)  -->
<!DOCTYPE svg PUBLIC "-//W3C//DTD SVG 1.1//EN" "http://www.w3.org/Graphics/SVG/1.1/DTD/svg11.dtd">
<svg version="1.1" id="Livello_1" xmlns="http://www.w3.org/2000/svg" xmlns:xlink="http://www.w3.org/1999/xlink" x="0px" y="0px"
	 width="97px" height="110.8px" viewBox="0 0 97 110.8" enable-background="new 0 0 97 110.8" xml:space="preserve">
<path fill="#46277A" d="M18.5,12.4c-0.4-0.4-0.9-0.7-1.5-0.7l3.8-2.9c0.6,0.1,1.1,0.4,1.5,0.8c0.4,0.4,0.9,0.7,1.5,0.8L20.1,13
	C19.5,12.9,19,12.7,18.5,12.4"/>
<path fill="none" stroke="#442775" stroke-width="0.176" stroke-linecap="round" stroke-linejoin="round" d="M18.5,12.4
	c-0.4-0.4-0.9-0.7-1.5-0.7l3.8-2.9c0.6,0.1,1.1,0.4,1.5,0.8c0.4,0.4,0.9,0.7,1.5,0.8L20.1,13C19.5,12.9,19,12.7,18.5,12.4"/>
<path fill="#46277A" d="M23.5,8.8c-0.3-0.5-0.8-0.8-1.4-0.9l4.1-2.4c0.5,0.2,1,0.5,1.4,1c0.3,0.5,0.8,0.8,1.4,1L25,9.6
	C24.4,9.4,23.9,9.2,23.5,8.8"/>
<path fill="none" stroke="#442775" stroke-width="0.176" stroke-linecap="round" stroke-linejoin="round" d="M23.5,8.8
	c-0.3-0.5-0.8-0.8-1.4-0.9l4.1-2.4c0.5,0.2,1,0.5,1.4,1c0.3,0.5,0.8,0.8,1.4,1L25,9.6C24.4,9.4,23.9,9.2,23.5,8.8"/>
<path fill="#46277A" d="M28.9,5.8c-0.3-0.5-0.7-0.9-1.2-1.1L32,2.9c0.5,0.3,0.9,0.7,1.2,1.2c0.3,0.5,0.7,0.9,1.2,1.2l-4.2,1.6
	C29.7,6.6,29.2,6.3,28.9,5.8"/>
<path fill="none" stroke="#442775" stroke-width="0.176" stroke-linecap="round" stroke-linejoin="round" d="M28.9,5.8
	c-0.3-0.5-0.7-0.9-1.2-1.1L32,2.9c0.5,0.3,0.9,0.7,1.2,1.2c0.3,0.5,0.7,0.9,1.2,1.2l-4.2,1.6C29.7,6.6,29.2,6.3,28.9,5.8"/>
<path fill="#46277A" d="M34.6,3.6c-0.2-0.5-0.6-1-1.1-1.2l4.6-1.2c0.5,0.3,0.8,0.8,1.1,1.3c0.2,0.5,0.6,1,1,1.3l-4.3,1
	C35.3,4.5,34.9,4.1,34.6,3.6"/>
<path fill="none" stroke="#442775" stroke-width="0.176" stroke-linecap="round" stroke-linejoin="round" d="M34.6,3.6
	c-0.2-0.5-0.6-1-1.1-1.2l4.6-1.2c0.5,0.3,0.8,0.8,1.1,1.3c0.2,0.5,0.6,1,1,1.3l-4.3,1C35.3,4.5,34.9,4.1,34.6,3.6"/>
<path fill="#46277A" d="M40.6,2.2c-0.1-0.6-0.5-1-0.9-1.3l4.7-0.6c0.4,0.4,0.7,0.9,0.9,1.4c0.1,0.6,0.4,1.1,0.9,1.4l-4.4,0.5
	C41.2,3.2,40.8,2.7,40.6,2.2"/>
<path fill="none" stroke="#442775" stroke-width="0.176" stroke-linecap="round" stroke-linejoin="round" d="M40.6,2.2
	c-0.1-0.6-0.5-1-0.9-1.3l4.7-0.6c0.4,0.4,0.7,0.9,0.9,1.4c0.1,0.6,0.4,1.1,0.9,1.4l-4.4,0.5C41.2,3.2,40.8,2.7,40.6,2.2"/>
<path fill="#46277A" d="M46.7,1.6C46.7,1,46.4,0.5,46,0.1l4.7,0c0.4,0.4,0.6,1,0.7,1.5c0,0.6,0.3,1.1,0.7,1.5L47.6,3
	C47.2,2.6,46.9,2.1,46.7,1.6"/>
<path fill="none" stroke="#442775" stroke-width="0.176" stroke-linecap="round" stroke-linejoin="round" d="M46.7,1.6
	C46.7,1,46.4,0.5,46,0.1l4.7,0c0.4,0.4,0.6,1,0.7,1.5c0,0.6,0.3,1.1,0.7,1.5L47.6,3C47.2,2.6,46.9,2.1,46.7,1.6"/>
<path fill="#46277A" d="M52.8,1.7c0-0.6-0.2-1.1-0.5-1.5L57,0.8c0.3,0.5,0.5,1,0.5,1.6c0,0.6,0.1,1.1,0.5,1.6l-4.4-0.7
	C53.2,2.9,52.9,2.3,52.8,1.7"/>
<path fill="none" stroke="#442775" stroke-width="0.176" stroke-linecap="round" stroke-linejoin="round" d="M52.8,1.7
	c0-0.6-0.2-1.1-0.5-1.5L57,0.8c0.3,0.5,0.5,1,0.5,1.6c0,0.6,0.1,1.1,0.5,1.6l-4.4-0.7C53.2,2.9,52.9,2.3,52.8,1.7"/>
<path fill="#46277A" d="M58.9,2.7c0.1-0.6,0-1.1-0.3-1.6l4.6,1.2c0.2,0.5,0.3,1.1,0.3,1.7c-0.1,0.6,0,1.2,0.2,1.7l-4.3-1.3
	C59.1,3.9,58.9,3.3,58.9,2.7"/>
<path fill="none" stroke="#442775" stroke-width="0.176" stroke-linecap="round" stroke-linejoin="round" d="M58.9,2.7
	c0.1-0.6,0-1.1-0.3-1.6l4.6,1.2c0.2,0.5,0.3,1.1,0.3,1.7c-0.1,0.6,0,1.2,0.2,1.7l-4.3-1.3C59.1,3.9,58.9,3.3,58.9,2.7"/>
<path fill="#46277A" d="M64.8,4.4c0.2-0.5,0.1-1.1-0.1-1.6l4.4,1.8c0.2,0.5,0.2,1.1,0,1.7c-0.2,0.5-0.2,1.1,0,1.7l-4.1-1.8
	C64.8,5.6,64.7,5,64.8,4.4"/>
<path fill="none" stroke="#442775" stroke-width="0.176" stroke-linecap="round" stroke-linejoin="round" d="M64.8,4.4
	c0.2-0.5,0.1-1.1-0.1-1.6l4.4,1.8c0.2,0.5,0.2,1.1,0,1.7c-0.2,0.5-0.2,1.1,0,1.7l-4.1-1.8C64.8,5.6,64.7,5,64.8,4.4"/>
<path fill="#46277A" d="M70.4,7c0.2-0.5,0.3-1.1,0.1-1.6l4.1,2.4c0.1,0.6,0,1.1-0.2,1.7c-0.3,0.5-0.3,1.1-0.2,1.7l-3.8-2.3
	C70.3,8.1,70.3,7.5,70.4,7"/>
<path fill="none" stroke="#442775" stroke-width="0.176" stroke-linecap="round" stroke-linejoin="round" d="M70.4,7
	c0.2-0.5,0.3-1.1,0.1-1.6l4.1,2.4c0.1,0.6,0,1.1-0.2,1.7c-0.3,0.5-0.3,1.1-0.2,1.7l-3.8-2.3C70.3,8.1,70.3,7.5,70.4,7"/>
<path fill="#46277A" d="M55,85.3c0,0.2,0.2,0.3,0.3,0.4c0.2,0.1,0.4,0.1,0.5,0.1l3.4-0.9c0.2-0.1,0.4-0.3,0.5-0.5
	c0.1-0.2,0-0.5-0.2-0.7c-0.2-0.2-0.4-0.2-0.7-0.2l-4.8,1.3c-1,0.3-2.1-0.3-2.4-1.4l-0.3-1c-0.3-1,0.3-2.1,1.4-2.4l6.3-1.7
	c1-0.3,2.1,0.3,2.4,1.4l0.2,0.7l-2.6,0.7c-0.1-0.4-0.5-0.6-0.9-0.5l-3.4,0.9c-0.4,0.1-0.6,0.5-0.5,0.9c0.1,0.4,0.5,0.6,0.9,0.5
	l4.8-1.3c0.5-0.1,1-0.1,1.5,0.2c0.4,0.3,0.8,0.7,0.9,1.2l0.3,1c0.1,0.5,0.1,1-0.2,1.5c-0.3,0.4-0.7,0.8-1.2,0.9L55,88.1
	c-1,0.3-2.1-0.3-2.4-1.4L52.4,86L55,85.3"/>
<path fill="none" stroke="#442775" stroke-width="0.176" stroke-linecap="round" stroke-linejoin="round" d="M55,85.3
	c0,0.2,0.2,0.3,0.3,0.4c0.2,0.1,0.4,0.1,0.5,0.1l3.4-0.9c0.2-0.1,0.4-0.3,0.5-0.5c0.1-0.2,0-0.5-0.2-0.7c-0.2-0.2-0.4-0.2-0.7-0.2
	l-4.8,1.3c-1,0.3-2.1-0.3-2.4-1.4l-0.3-1c-0.3-1,0.3-2.1,1.4-2.4l6.3-1.7c1-0.3,2.1,0.3,2.4,1.4l0.2,0.7l-2.6,0.7
	c-0.1-0.4-0.5-0.6-0.9-0.5l-3.4,0.9c-0.4,0.1-0.6,0.5-0.5,0.9c0.1,0.4,0.5,0.6,0.9,0.5l4.8-1.3c0.5-0.1,1-0.1,1.5,0.2
	c0.4,0.3,0.8,0.7,0.9,1.2l0.3,1c0.1,0.5,0.1,1-0.2,1.5c-0.3,0.4-0.7,0.8-1.2,0.9L55,88.1c-1,0.3-2.1-0.3-2.4-1.4L52.4,86L55,85.3"/>
<path fill="#46277A" d="M38.6,85.5l1.1-2.8l-5-2l-0.6,1.6l1.9,0.8l0.6,0.2l-0.2,0.6c-0.1,0.2-0.2,0.3-0.3,0.3
	c-0.2,0.1-0.3,0.1-0.5,0l-3.8-1.6c-0.3-0.1-0.5-0.5-0.3-0.8l1.2-2.9c0.1-0.2,0.2-0.3,0.3-0.3c0.2-0.1,0.3-0.1,0.5,0l3.8,1.6
	c0.2,0.1,0.3,0.2,0.3,0.3c0.1,0.2,0.1,0.3,0,0.5l2.5,1l0.2-0.6c0.4-1-0.1-2.1-1.1-2.5l-6.4-2.6c-1-0.4-2.1,0.1-2.5,1.1l-1.6,4.1
	c-0.4,1,0.1,2.1,1.1,2.5l6.4,2.6C37.1,87,38.2,86.5,38.6,85.5"/>
<path fill="none" stroke="#442775" stroke-width="0.176" stroke-linecap="round" stroke-linejoin="round" d="M38.6,85.5l1.1-2.8
	l-5-2l-0.6,1.6l1.9,0.8l0.6,0.2l-0.2,0.6c-0.1,0.2-0.2,0.3-0.3,0.3c-0.2,0.1-0.3,0.1-0.5,0l-3.8-1.6c-0.3-0.1-0.5-0.5-0.3-0.8
	l1.2-2.9c0.1-0.2,0.2-0.3,0.3-0.3c0.2-0.1,0.3-0.1,0.5,0l3.8,1.6c0.2,0.1,0.3,0.2,0.3,0.3c0.1,0.2,0.1,0.3,0,0.5l2.5,1l0.2-0.6
	c0.4-1-0.1-2.1-1.1-2.5l-6.4-2.6c-1-0.4-2.1,0.1-2.5,1.1l-1.6,4.1c-0.4,1,0.1,2.1,1.1,2.5l6.4,2.6C37.1,87,38.2,86.5,38.6,85.5"/>
<path fill="#46277A" d="M26.8,71.4l-8.5,3.4l2,1.8l2-0.8l3.2,2.9l-0.6,2.1l2,1.8l2.5-8.8L26.8,71.4z M26,76.9l-1.9-1.7l2.7-1.1
	L26,76.9z"/>
<path fill="none" stroke="#442775" stroke-width="0.176" stroke-linecap="round" stroke-linejoin="round" d="M26.8,71.4l-8.5,3.4
	l2,1.8l2-0.8l3.2,2.9l-0.6,2.1l2,1.8l2.5-8.8L26.8,71.4z M26,76.9l-1.9-1.7l2.7-1.1L26,76.9z"/>
<polygon fill="#46277A" points="50.7,80.6 50.4,82.5 44,81.8 43.9,83.2 49.5,83.8 49.4,85.5 43.7,84.9 43.6,86.2 50,86.8 49.8,88.8 
	40.7,87.8 41.5,79.6 "/>
<polyline fill="none" stroke="#442775" stroke-width="0.176" stroke-linecap="round" stroke-linejoin="round" points="50.7,80.6 
	50.4,82.5 44,81.8 43.9,83.2 49.5,83.8 49.4,85.5 43.7,84.9 43.6,86.2 50,86.8 49.8,88.8 40.7,87.8 41.5,79.6 50.7,80.6 "/>
<polyline fill="#46277A" points="78.1,75.5 72.3,69.6 70.6,71.4 76.4,77.2 78.1,75.5 "/>
<polyline fill="none" stroke="#442775" stroke-width="0.176" stroke-linecap="round" stroke-linejoin="round" points="78.1,75.5 
	72.3,69.6 70.6,71.4 76.4,77.2 78.1,75.5 "/>
<path fill="#46277A" d="M71.8,74.1l-2.3,1.5c-0.2-0.3-0.6-0.4-0.9-0.2l-3.5,2.3c-0.3,0.2-0.4,0.6-0.2,0.9l1.7,2.6
	c0.1,0.1,0.2,0.2,0.4,0.3c0.2,0,0.3,0,0.5-0.1l3.5-2.3c0.3-0.2,0.4-0.6,0.2-0.9l-0.3-0.5l2.3-1.5l0.7,1.1c0.6,0.9,0.3,2.1-0.6,2.7
	l-5.8,3.8C67,84,66.5,84.1,66,84c-0.5-0.1-0.9-0.4-1.2-0.8l-2.4-3.7c-0.6-0.9-0.3-2.1,0.6-2.7l5.8-3.8c0.9-0.6,2.1-0.3,2.7,0.6
	L71.8,74.1"/>
<path fill="none" stroke="#442775" stroke-width="0.176" stroke-linecap="round" stroke-linejoin="round" d="M71.8,74.1l-2.3,1.5
	c-0.2-0.3-0.6-0.4-0.9-0.2l-3.5,2.3c-0.3,0.2-0.4,0.6-0.2,0.9l1.7,2.6c0.1,0.1,0.2,0.2,0.4,0.3c0.2,0,0.3,0,0.5-0.1l3.5-2.3
	c0.3-0.2,0.4-0.6,0.2-0.9l-0.3-0.5l2.3-1.5l0.7,1.1c0.6,0.9,0.3,2.1-0.6,2.7l-5.8,3.8C67,84,66.5,84.1,66,84
	c-0.5-0.1-0.9-0.4-1.2-0.8l-2.4-3.7c-0.6-0.9-0.3-2.1,0.6-2.7l5.8-3.8c0.9-0.6,2.1-0.3,2.7,0.6L71.8,74.1"/>
<path fill="#46277A" d="M39.2,39.2c-0.4,0.2-0.9,0.2-1.4,0.2c-0.5-0.1-0.9-0.2-1.3-0.5c-1.5-0.9-2.9-2.1-4.1-3.4
	c-2.2-2.7-5.1-4.8-8.3-6.1c-3.7-1.6-8-1.2-11.4,1.2c-2.7,2.2-4.2,5.6-4.1,9.1c0.1,3.5,1.8,6.8,4.7,8.8c-2.8,2.1-4.6,5.3-4.7,8.8
	c-0.1,3.5,1.4,6.9,4.1,9.1c3.3,2.3,7.6,2.7,11.4,1.2c2.4-1,4.6-2.4,6.5-4.2c1.6-1.4,3-2.9,4.1-4.7c0.2-0.3,0.5-0.6,0.8-0.8
	c1.4-1.2,3.2-1.8,5-1.5s3.4,1.3,4.4,2.8c0.2,0.3,0.4,0.7,0.5,1.1c0.5,1.5,0.6,3.2,0.5,4.8c-0.2,2.7-0.8,5.4-1.8,8
	c-0.5,1.2-1.1,2.3-1.8,3.3l6.7,2.2l0.9-3.5c0.4-2.7,0.6-5.5,0.7-8.2c0.1-2.2,0.4-4.4,1-6.5c0.1-0.4,0.3-0.7,0.5-1.1
	c1-1.5,2.6-2.6,4.4-2.8c1.8-0.3,3.6,0.3,5,1.5c0.3,0.2,0.5,0.5,0.8,0.8c1.2,1.7,2.5,3.3,4.1,4.7c1.9,1.8,4.1,3.2,6.5,4.2
	c3.7,1.6,8,1.1,11.4-1.2c2.7-2.2,4.2-5.6,4.1-9.1c-0.1-3.5-1.8-6.8-4.7-8.8c2.8-2.1,4.6-5.3,4.7-8.8c0.1-3.5-1.4-6.9-4.1-9.1
	c-3.3-2.3-7.6-2.7-11.4-1.2c-3.2,1.3-6.1,3.4-8.3,6.1c-1.2,1.3-2.6,2.5-4.1,3.4c-0.4,0.2-0.8,0.4-1.3,0.5c-0.5,0.1-1,0-1.4-0.2
	c-0.2-0.1-0.4-0.2-0.6-0.4c-0.6-0.6-0.9-1.3-0.9-2.1c0-0.8,0.3-1.5,0.9-2.1c0.8-0.7,1.6-1.4,2.5-1.9c3.5-2.3,6.3-5.7,7.9-9.6
	c1.6-3.7,1.2-8-1.2-11.4c-2.2-2.7-5.6-4.2-9.1-4.1c-3.5,0.1-6.8,1.8-8.8,4.7c-2.1-2.8-5.3-4.6-8.8-4.7c-3.5-0.1-6.9,1.4-9.1,4.1
	c-2.3,3.3-2.7,7.6-1.2,11.4c1.6,3.9,4.4,7.3,7.9,9.6c0.9,0.5,1.7,1.2,2.5,1.9c0.6,0.6,0.9,1.3,0.9,2.1c0,0.8-0.3,1.5-0.9,2.1
	C39.6,39,39.5,39.1,39.2,39.2"/>
<path fill="none" stroke="#452775" stroke-width="0.176" stroke-linecap="round" stroke-linejoin="round" d="M39.2,39.2
	c-0.4,0.2-0.9,0.2-1.4,0.2c-0.5-0.1-0.9-0.2-1.3-0.5c-1.5-0.9-2.9-2.1-4.1-3.4c-2.2-2.7-5.1-4.8-8.3-6.1c-3.7-1.6-8-1.2-11.4,1.2
	c-2.7,2.2-4.2,5.6-4.1,9.1c0.1,3.5,1.8,6.8,4.7,8.8c-2.8,2.1-4.6,5.3-4.7,8.8c-0.1,3.5,1.4,6.9,4.1,9.1c3.3,2.3,7.6,2.7,11.4,1.2
	c2.4-1,4.6-2.4,6.5-4.2c1.6-1.4,3-2.9,4.1-4.7c0.2-0.3,0.5-0.6,0.8-0.8c1.4-1.2,3.2-1.8,5-1.5s3.4,1.3,4.4,2.8
	c0.2,0.3,0.4,0.7,0.5,1.1c0.5,1.5,0.6,3.2,0.5,4.8c-0.2,2.7-0.8,5.4-1.8,8c-0.5,1.2-1.1,2.3-1.8,3.3l6.7,2.2l0.9-3.5
	c0.4-2.7,0.6-5.5,0.7-8.2c0.1-2.2,0.4-4.4,1-6.5c0.1-0.4,0.3-0.7,0.5-1.1c1-1.5,2.6-2.6,4.4-2.8c1.8-0.3,3.6,0.3,5,1.5
	c0.3,0.2,0.5,0.5,0.8,0.8c1.2,1.7,2.5,3.3,4.1,4.7c1.9,1.8,4.1,3.2,6.5,4.2c3.7,1.6,8,1.1,11.4-1.2c2.7-2.2,4.2-5.6,4.1-9.1
	c-0.1-3.5-1.8-6.8-4.7-8.8c2.8-2.1,4.6-5.3,4.7-8.8c0.1-3.5-1.4-6.9-4.1-9.1c-3.3-2.3-7.6-2.7-11.4-1.2c-3.2,1.3-6.1,3.4-8.3,6.1
	c-1.2,1.3-2.6,2.5-4.1,3.4c-0.4,0.2-0.8,0.4-1.3,0.5c-0.5,0.1-1,0-1.4-0.2c-0.2-0.1-0.4-0.2-0.6-0.4c-0.6-0.6-0.9-1.3-0.9-2.1
	c0-0.8,0.3-1.5,0.9-2.1c0.8-0.7,1.6-1.4,2.5-1.9c3.5-2.3,6.3-5.7,7.9-9.6c1.6-3.7,1.2-8-1.2-11.4c-2.2-2.7-5.6-4.2-9.1-4.1
	c-3.5,0.1-6.8,1.8-8.8,4.7c-2.1-2.8-5.3-4.6-8.8-4.7c-3.5-0.1-6.9,1.4-9.1,4.1c-2.3,3.3-2.7,7.6-1.2,11.4c1.6,3.9,4.4,7.3,7.9,9.6
	c0.9,0.5,1.7,1.2,2.5,1.9c0.6,0.6,0.9,1.3,0.9,2.1c0,0.8-0.3,1.5-0.9,2.1C39.6,39,39.5,39.1,39.2,39.2z"/>
<path fill="#FCBD00" d="M48.5,12.6C45.2,8.1,39,6.9,34.3,9.9s-6.3,9.1-3.6,14c1.5,3.3,3.7,6.1,6.5,8.4c0.9,0.5,1.7,1.2,2.5,1.8
	c1,0.8,1.5,2.1,1.6,3.3c0,0.8-0.1,1.5-0.4,2.2c-0.2,0.4-0.7,0.7-1.2,0.7c-1.5-0.1-2.9-0.5-4.1-1.3c-1.5-1.2-2.9-2.5-4.3-3.9
	c-1.9-1.8-4.1-3.3-6.4-4.4c-4.9-2.7-11-1.1-14,3.6c-3,4.7-1.8,10.9,2.7,14.2C9.1,51.8,8,58,10.9,62.7c3,4.7,9.1,6.3,14,3.6
	c3.5-1.6,6.5-4,8.8-7c0.4-0.5,0.8-1,1.3-1.5c1.4-1.6,3.5-2.5,5.6-2.1c2.1,0.3,3.9,1.7,4.8,3.7c0.2,0.3,0.3,0.7,0.5,1.1
	c0.4,1.4,0.6,2.8,0.6,4.2c0,1.4-0.2,2.8-0.6,4.1c-0.4,1.5-0.9,3.1-1.4,4.6c-0.4,1-0.9,2-1.5,2.9l5.9,2l0.7-2.8
	c0.4-2.8,0.6-5.6,0.8-8.4c0.1-2.2,0.4-4.4,0.9-6.6c0.1-0.4,0.3-0.7,0.5-1.1c0.8-2,2.6-3.4,4.8-3.7c2.1-0.3,4.2,0.5,5.6,2.1
	c0.4,0.5,0.9,1,1.3,1.5c2.3,3,5.3,5.4,8.8,7c4.9,2.7,11,1.1,14-3.6c3-4.7,1.8-10.9-2.7-14.2c4.5-3.3,5.7-9.5,2.7-14.2
	c-3-4.7-9.1-6.3-14-3.6c-2.4,1.1-4.6,2.6-6.4,4.4c-1.4,1.4-2.8,2.7-4.3,3.9c-1.2,0.8-2.6,1.2-4.1,1.3c-0.5,0-1-0.2-1.2-0.7
	c-0.3-0.7-0.5-1.4-0.4-2.2c0.1-1.3,0.6-2.5,1.6-3.3c0.8-0.7,1.6-1.3,2.5-1.8c2.8-2.3,5-5.1,6.5-8.4c2.7-4.9,1.1-11-3.6-14
	C58,6.9,51.8,8.1,48.5,12.6"/>
<path fill="none" stroke="#FBB900" stroke-width="0.176" stroke-linecap="round" stroke-linejoin="round" d="M48.5,12.6
	C45.2,8.1,39,6.9,34.3,9.9s-6.3,9.1-3.6,14c1.5,3.3,3.7,6.1,6.5,8.4c0.9,0.5,1.7,1.2,2.5,1.8c1,0.8,1.5,2.1,1.6,3.3
	c0,0.8-0.1,1.5-0.4,2.2c-0.2,0.4-0.7,0.7-1.2,0.7c-1.5-0.1-2.9-0.5-4.1-1.3c-1.5-1.2-2.9-2.5-4.3-3.9c-1.9-1.8-4.1-3.3-6.4-4.4
	c-4.9-2.7-11-1.1-14,3.6c-3,4.7-1.8,10.9,2.7,14.2C9.1,51.8,8,58,10.9,62.7c3,4.7,9.1,6.3,14,3.6c3.5-1.6,6.5-4,8.8-7
	c0.4-0.5,0.8-1,1.3-1.5c1.4-1.6,3.5-2.5,5.6-2.1c2.1,0.3,3.9,1.7,4.8,3.7c0.2,0.3,0.3,0.7,0.5,1.1c0.4,1.4,0.6,2.8,0.6,4.2
	c0,1.4-0.2,2.8-0.6,4.1c-0.4,1.5-0.9,3.1-1.4,4.6c-0.4,1-0.9,2-1.5,2.9l5.9,2l0.7-2.8c0.4-2.8,0.6-5.6,0.8-8.4
	c0.1-2.2,0.4-4.4,0.9-6.6c0.1-0.4,0.3-0.7,0.5-1.1c0.8-2,2.6-3.4,4.8-3.7c2.1-0.3,4.2,0.5,5.6,2.1c0.4,0.5,0.9,1,1.3,1.5
	c2.3,3,5.3,5.4,8.8,7c4.9,2.7,11,1.1,14-3.6c3-4.7,1.8-10.9-2.7-14.2c4.5-3.3,5.7-9.5,2.7-14.2c-3-4.7-9.1-6.3-14-3.6
	c-2.4,1.1-4.6,2.6-6.4,4.4c-1.4,1.4-2.8,2.7-4.3,3.9c-1.2,0.8-2.6,1.2-4.1,1.3c-0.5,0-1-0.2-1.2-0.7c-0.3-0.7-0.5-1.4-0.4-2.2
	c0.1-1.3,0.6-2.5,1.6-3.3c0.8-0.7,1.6-1.3,2.5-1.8c2.8-2.3,5-5.1,6.5-8.4c2.7-4.9,1.1-11-3.6-14C58,6.9,51.8,8.1,48.5,12.6z"/>
<path fill="#46277A" d="M48.1,101.7c-0.1-0.6-0.3-1.2-0.7-1.6c-1,0.5-1.9,1.2-2.7,1.9c-0.2,0.1-0.5,0.3-0.7,0.4
	c-0.1,0.6-0.1,1.1,0.1,1.7c0.3,0.5,0.3,1,0.2,1.6c1-0.3,1.9-0.9,2.7-1.5c0.3-0.3,0.7-0.6,1.1-0.8c0.2-0.1,0.3-0.2,0.5-0.3
	C48.2,102.6,48,102.1,48.1,101.7"/>
<path fill="none" stroke="#442775" stroke-width="0.176" stroke-linecap="round" stroke-linejoin="round" d="M48.1,101.7
	c-0.1-0.6-0.3-1.2-0.7-1.6c-1,0.5-1.9,1.2-2.7,1.9c-0.2,0.1-0.5,0.3-0.7,0.4c-0.1,0.6-0.1,1.1,0.1,1.7c0.3,0.5,0.3,1,0.2,1.6
	c1-0.3,1.9-0.9,2.7-1.5c0.3-0.3,0.7-0.6,1.1-0.8c0.2-0.1,0.3-0.2,0.5-0.3C48.2,102.6,48,102.1,48.1,101.7"/>
<path fill="#46277A" d="M54.2,99.7c-0.1-0.6-0.3-1.1-0.7-1.6c-1.9,0.2-3.8,0.7-5.5,1.6c0.9,0.4,1.4,1.2,1.5,2.1
	c0,0.2,0.1,0.3,0.1,0.5c1.6-0.7,3.3-1.1,5-1.2C54.3,100.7,54.2,100.2,54.2,99.7"/>
<path fill="none" stroke="#442775" stroke-width="0.176" stroke-linecap="round" stroke-linejoin="round" d="M54.2,99.7
	c-0.1-0.6-0.3-1.1-0.7-1.6c-1.9,0.2-3.8,0.7-5.5,1.6c0.9,0.4,1.4,1.2,1.5,2.1c0,0.2,0.1,0.3,0.1,0.5c1.6-0.7,3.3-1.1,5-1.2
	C54.3,100.7,54.2,100.2,54.2,99.7"/>
<path fill="#46277A" d="M59.4,98.7c-1.5-0.4-3.1-0.7-4.7-0.6c0.6,0.4,0.9,1.1,0.9,1.8c0,0.2,0.1,0.4,0.1,0.5l0,0.8l1.6,0.2
	C58.4,100.7,59.1,99.8,59.4,98.7"/>
<path fill="none" stroke="#442775" stroke-width="0.176" stroke-linecap="round" stroke-linejoin="round" d="M59.4,98.7
	c-1.5-0.4-3.1-0.7-4.7-0.6c0.6,0.4,0.9,1.1,0.9,1.8c0,0.2,0.1,0.4,0.1,0.5l0,0.8l1.6,0.2C58.4,100.7,59.1,99.8,59.4,98.7"/>
<path fill="#46277A" d="M62.3,98.7c-0.6-0.1-1.2,0.1-1.7,0.3c-0.3,1.2-1.1,2.2-2.1,3c0.7,0.2,1.3,0.6,1.6,1.2
	c0.2,0.3,0.5,0.6,0.8,0.8c1.6-1.4,2.6-3.3,2.9-5.4C63.3,98.8,62.8,98.8,62.3,98.7"/>
<path fill="none" stroke="#442775" stroke-width="0.176" stroke-linecap="round" stroke-linejoin="round" d="M62.3,98.7
	c-0.6-0.1-1.2,0.1-1.7,0.3c-0.3,1.2-1.1,2.2-2.1,3c0.7,0.2,1.3,0.6,1.6,1.2c0.2,0.3,0.5,0.6,0.8,0.8c1.6-1.4,2.6-3.3,2.9-5.4
	C63.3,98.8,62.8,98.8,62.3,98.7"/>
<path fill="#46277A" d="M58.8,103.7c0.2,0.5,0.6,0.9,1,1.1c-1.3,0.8-2.8,1.2-4.3,1.3c-0.6,0-1.2,0-1.8-0.1c0-0.4,0-0.8,0.1-1.1
	c0.3-0.6,0.2-1.4-0.1-2c0.6,0.2,1.1,0.2,1.7,0.2c0.7,0,1.3-0.2,1.9-0.4C58,102.8,58.4,103.2,58.8,103.7"/>
<path fill="none" stroke="#442775" stroke-width="0.176" stroke-linecap="round" stroke-linejoin="round" d="M58.8,103.7
	c0.2,0.5,0.6,0.9,1,1.1c-1.3,0.8-2.8,1.2-4.3,1.3c-0.6,0-1.2,0-1.8-0.1c0-0.4,0-0.8,0.1-1.1c0.3-0.6,0.2-1.4-0.1-2
	c0.6,0.2,1.1,0.2,1.7,0.2c0.7,0,1.3-0.2,1.9-0.4C58,102.8,58.4,103.2,58.8,103.7"/>
<path fill="#46277A" d="M52.6,104.1c-0.2,0.5-0.3,1-0.2,1.5c-0.7-0.2-1.3-0.6-1.9-1l-1.4-1c1.1-0.6,2.2-1.1,3.5-1.4
	c0.1,0,0.1,0.1,0.2,0.1C52.8,103,52.8,103.5,52.6,104.1"/>
<path fill="none" stroke="#442775" stroke-width="0.176" stroke-linecap="round" stroke-linejoin="round" d="M52.6,104.1
	c-0.2,0.5-0.3,1-0.2,1.5c-0.7-0.2-1.3-0.6-1.9-1l-1.4-1c1.1-0.6,2.2-1.1,3.5-1.4c0.1,0,0.1,0.1,0.2,0.1
	C52.8,103,52.8,103.5,52.6,104.1"/>
<path fill="#46277A" d="M54.2,95.4c-0.1,0.6-0.3,1.1-0.7,1.6c-1.9-0.2-3.7-0.7-5.4-1.6c0.8-0.4,1.4-1.2,1.5-2.1
	c0-0.2,0.1-0.4,0.1-0.5c1.6,0.7,3.3,1.2,5,1.2C54.3,94.4,54.2,94.9,54.2,95.4"/>
<path fill="none" stroke="#442775" stroke-width="0.176" stroke-linecap="round" stroke-linejoin="round" d="M54.2,95.4
	c-0.1,0.6-0.3,1.1-0.7,1.6c-1.9-0.2-3.7-0.7-5.4-1.6c0.8-0.4,1.4-1.2,1.5-2.1c0-0.2,0.1-0.4,0.1-0.5c1.6,0.7,3.3,1.2,5,1.2
	C54.3,94.4,54.2,94.9,54.2,95.4"/>
<path fill="#46277A" d="M48,93.4c0-0.5,0.1-0.9,0.4-1.3c-0.6-0.4-1.1-0.7-1.6-1.2l-0.6-0.4c-0.8-0.5-1.7-1-2.6-1.2
	c-0.2,0.3-0.3,0.7-0.4,1.1c0,0.7-0.4,1.4-0.9,1.8c0.7,0.1,1.3,0.3,1.9,0.7l0.7,0.4c0.8,0.7,1.6,1.3,2.5,1.8C47.7,94.6,48,94,48,93.4
	"/>
<path fill="none" stroke="#442775" stroke-width="0.176" stroke-linecap="round" stroke-linejoin="round" d="M48,93.4
	c0-0.5,0.1-0.9,0.4-1.3c-0.6-0.4-1.1-0.7-1.6-1.2l-0.6-0.4c-0.8-0.5-1.7-1-2.6-1.2c-0.2,0.3-0.3,0.7-0.4,1.1c0,0.7-0.4,1.4-0.9,1.8
	c0.7,0.1,1.3,0.3,1.9,0.7l0.7,0.4c0.8,0.7,1.6,1.3,2.5,1.8C47.7,94.6,48,94,48,93.4"/>
<path fill="#46277A" d="M41.7,90.5c0-0.5,0.1-1,0.5-1.4l-0.5,0c-2.2-0.1-4.3,0.7-6,2.1c1.1,0.7,2.3,1.1,3.5,1.4
	c0.6-0.2,1.2-0.4,1.9-0.4C41.4,91.6,41.6,91.1,41.7,90.5"/>
<path fill="none" stroke="#442775" stroke-width="0.176" stroke-linecap="round" stroke-linejoin="round" d="M41.7,90.5
	c0-0.5,0.1-1,0.5-1.4l-0.5,0c-2.2-0.1-4.3,0.7-6,2.1c1.1,0.7,2.3,1.1,3.5,1.4c0.6-0.2,1.2-0.4,1.9-0.4
	C41.4,91.6,41.6,91.1,41.7,90.5"/>
<path fill="#46277A" d="M34,93.2c0.1-0.5,0-1.1-0.2-1.6l1.7,0.7c0.9,0.5,2,0.9,3,1.2c0.2,0.3,0.3,0.7,0.2,1.1
	c-0.2,0.7-0.1,1.4,0.1,2.1c-1.5-0.3-3-0.8-4.4-1.5C33.9,94.7,33.7,93.9,34,93.2"/>
<path fill="none" stroke="#442775" stroke-width="0.176" stroke-linecap="round" stroke-linejoin="round" d="M34,93.2
	c0.1-0.5,0-1.1-0.2-1.6l1.7,0.7c0.9,0.5,2,0.9,3,1.2c0.2,0.3,0.3,0.7,0.2,1.1c-0.2,0.7-0.1,1.4,0.1,2.1c-1.5-0.3-3-0.8-4.4-1.5
	C33.9,94.7,33.7,93.9,34,93.2"/>
<path fill="#46277A" d="M39.9,94.9c0-0.3,0-0.7,0-1c1.1,0.2,2.3,0.2,3.4,0c1,0.9,2.1,1.7,3.2,2.4c-2,0.6-4,0.9-6.1,0.7
	C39.8,96.4,39.6,95.6,39.9,94.9"/>
<path fill="none" stroke="#442775" stroke-width="0.176" stroke-linecap="round" stroke-linejoin="round" d="M39.9,94.9
	c0-0.3,0-0.7,0-1c1.1,0.2,2.3,0.2,3.4,0c1,0.9,2.1,1.7,3.2,2.4c-2,0.6-4,0.9-6.1,0.7C39.8,96.4,39.6,95.6,39.9,94.9"/>
<path fill="#46277A" d="M39.9,100.2c0,0.3,0,0.7,0,1c1.1-0.2,2.3-0.2,3.4,0c1-0.9,2.1-1.7,3.2-2.4c-2-0.6-4-0.9-6.1-0.7
	C39.8,98.7,39.6,99.5,39.9,100.2"/>
<path fill="none" stroke="#442775" stroke-width="0.176" stroke-linecap="round" stroke-linejoin="round" d="M39.9,100.2
	c0,0.3,0,0.7,0,1c1.1-0.2,2.3-0.2,3.4,0c1-0.9,2.1-1.7,3.2-2.4c-2-0.6-4-0.9-6.1-0.7C39.8,98.7,39.6,99.5,39.9,100.2"/>
<path fill="#46277A" d="M42.7,102.9c-0.3,0.6-0.3,1.3,0,2c0.1,0.4,0.2,0.8,0.1,1.2c-0.4,0.1-0.8,0.1-1.1,0.1
	c-2.2,0.1-4.4-0.7-6.1-2.1c1.1-0.7,2.2-1.1,3.5-1.4c0.8,0.4,1.7,0.5,2.6,0.4C42.1,103,42.4,103,42.7,102.9"/>
<path fill="none" stroke="#442775" stroke-width="0.176" stroke-linecap="round" stroke-linejoin="round" d="M42.7,102.9
	c-0.3,0.6-0.3,1.3,0,2c0.1,0.4,0.2,0.8,0.1,1.2c-0.4,0.1-0.8,0.1-1.1,0.1c-2.2,0.1-4.4-0.7-6.1-2.1c1.1-0.7,2.2-1.1,3.5-1.4
	c0.8,0.4,1.7,0.5,2.6,0.4C42.1,103,42.4,103,42.7,102.9z"/>
<path fill="#46277A" d="M34,101.9c0.1,0.8-0.1,1.6-0.6,2.3c0.4-0.3,0.7-0.6,1.1-0.9c1.2-0.8,2.6-1.4,4-1.8c0.2-0.3,0.3-0.7,0.2-1.1
	c-0.2-0.7-0.1-1.4,0.1-2.1c-0.6,0.1-1.3,0.3-1.9,0.5c-0.9,0.3-1.7,0.6-2.5,1C33.9,100.4,33.7,101.2,34,101.9"/>
<path fill="none" stroke="#442775" stroke-width="0.176" stroke-linecap="round" stroke-linejoin="round" d="M34,101.9
	c0.1,0.8-0.1,1.6-0.6,2.3c0.4-0.3,0.7-0.6,1.1-0.9c1.2-0.8,2.6-1.4,4-1.8c0.2-0.3,0.3-0.7,0.2-1.1c-0.2-0.7-0.1-1.4,0.1-2.1
	c-0.6,0.1-1.3,0.3-1.9,0.5c-0.9,0.3-1.7,0.6-2.5,1C33.9,100.4,33.7,101.2,34,101.9"/>
<path fill="#46277A" d="M34,96.1l-0.8-0.4c-0.3,1.2-0.3,2.5,0,3.7c0.9-0.5,1.9-1,2.9-1.3c0-0.3,0-0.7,0-1
	C35.4,96.8,34.7,96.5,34,96.1"/>
<path fill="none" stroke="#442775" stroke-width="0.176" stroke-linecap="round" stroke-linejoin="round" d="M34,96.1l-0.8-0.4
	c-0.3,1.2-0.3,2.5,0,3.7c0.9-0.5,1.9-1,2.9-1.3c0-0.3,0-0.7,0-1C35.4,96.8,34.7,96.5,34,96.1z"/>
<path fill="#46277A" d="M32.4,102.7c0.1,0.4,0,0.9-0.1,1.3l-0.3,1.6l-1.8,2.1l-2.3-2l1.8-2.1c0.9-1,1.9-2,3-2.7
	C32.3,101.4,32.2,102.1,32.4,102.7"/>
<path fill="none" stroke="#442775" stroke-width="0.176" stroke-linecap="round" stroke-linejoin="round" d="M32.4,102.7
	c0.1,0.4,0,0.9-0.1,1.3l-0.3,1.6l-1.8,2.1l-2.3-2l1.8-2.1c0.9-1,1.9-2,3-2.7C32.3,101.4,32.2,102.1,32.4,102.7"/>
<rect x="26.8" y="107.3" transform="matrix(0.7622 0.6473 -0.6473 0.7622 76.3308 7.247)" fill="#46277A" width="3.1" height="0.4"/>
<rect x="26.8" y="107.3" transform="matrix(0.7622 0.6473 -0.6473 0.7622 76.3308 7.247)" fill="none" stroke="#442775" stroke-width="0.176" stroke-linecap="round" stroke-linejoin="round" width="3.1" height="0.4"/>
<rect x="25.5" y="108" transform="matrix(0.7622 0.6473 -0.6473 0.7622 76.976 8.3884)" fill="#46277A" width="3.1" height="2"/>
<rect x="25.5" y="108" transform="matrix(0.7622 0.6473 -0.6473 0.7622 76.976 8.3884)" fill="none" stroke="#442775" stroke-width="0.176" stroke-linecap="round" stroke-linejoin="round" width="3.1" height="2"/>
<path fill="#46277A" d="M62.8,103.8c0.7-0.8,1.2-1.7,1.6-2.6c1,0.7,1.8,1.5,2.6,2.4l1.8,2.1l-2.3,2l-1.8-2.1
	C64.1,104.9,63.5,104.3,62.8,103.8"/>
<path fill="none" stroke="#442775" stroke-width="0.176" stroke-linecap="round" stroke-linejoin="round" d="M62.8,103.8
	c0.7-0.8,1.2-1.7,1.6-2.6c1,0.7,1.8,1.5,2.6,2.4l1.8,2.1l-2.3,2l-1.8-2.1C64.1,104.9,63.5,104.3,62.8,103.8z"/>
<rect x="66.8" y="107.3" transform="matrix(-0.7622 0.6473 -0.6473 -0.7622 189.9726 145.2489)" fill="#46277A" width="3.1" height="0.4"/>
<rect x="66.8" y="107.3" transform="matrix(-0.7622 0.6473 -0.6473 -0.7622 189.9726 145.2489)" fill="none" stroke="#442775" stroke-width="0.176" stroke-linecap="round" stroke-linejoin="round" width="3.1" height="0.4"/>
<rect x="68" y="108" transform="matrix(-0.7622 0.6473 -0.6473 -0.7622 193.0801 147.0065)" fill="#46277A" width="3.1" height="2"/>
<rect x="68" y="108" transform="matrix(-0.7622 0.6473 -0.6473 -0.7622 193.0801 147.0065)" fill="none" stroke="#442775" stroke-width="0.176" stroke-linecap="round" stroke-linejoin="round" width="3.1" height="2"/>
<path fill="#46277A" d="M49.8,90.9l0.7-0.5c0.8-0.5,1.6-0.9,2.6-1.2c0.2,0.3,0.3,0.7,0.4,1.1c0,0.7,0.4,1.3,0.9,1.8
	c-0.5,0.1-0.9,0.2-1.4,0.4c-1.2-0.2-2.5-0.7-3.6-1.3C49.5,91.2,49.7,91.1,49.8,90.9"/>
<path fill="none" stroke="#442775" stroke-width="0.176" stroke-linecap="round" stroke-linejoin="round" d="M49.8,90.9l0.7-0.5
	c0.8-0.5,1.6-0.9,2.6-1.2c0.2,0.3,0.3,0.7,0.4,1.1c0,0.7,0.4,1.3,0.9,1.8c-0.5,0.1-0.9,0.2-1.4,0.4c-1.2-0.2-2.5-0.7-3.6-1.3
	C49.5,91.2,49.7,91.1,49.8,90.9"/>
<path fill="#46277A" d="M59.4,96.4c-0.3-1.1-1.1-2.1-2.1-2.6c-0.5,0.1-1.1,0.2-1.6,0.2l0,0.8c-0.1,0.2-0.1,0.4-0.1,0.5
	c0,0.7-0.4,1.4-0.9,1.8C56.3,97.1,57.9,96.9,59.4,96.4"/>
<path fill="none" stroke="#442775" stroke-width="0.176" stroke-linecap="round" stroke-linejoin="round" d="M59.4,96.4
	c-0.3-1.1-1.1-2.1-2.1-2.6c-0.5,0.1-1.1,0.2-1.6,0.2l0,0.8c-0.1,0.2-0.1,0.4-0.1,0.5c0,0.7-0.4,1.4-0.9,1.8
	C56.3,97.1,57.9,96.9,59.4,96.4"/>
<path fill="#46277A" d="M60.6,92.8c-0.4,0.4-0.7,1-0.8,1.5c0.7,1,1.1,2.2,1,3.5c0.5-0.4,1.2-0.6,1.9-0.5c0.4,0,0.8,0,1.1-0.1
	c-0.1-2.1-1-4.1-2.5-5.6C61.3,92.1,61,92.5,60.6,92.8"/>
<path fill="none" stroke="#442775" stroke-width="0.176" stroke-linecap="round" stroke-linejoin="round" d="M60.6,92.8
	c-0.4,0.4-0.7,1-0.8,1.5c0.7,1,1.1,2.2,1,3.5c0.5-0.4,1.2-0.6,1.9-0.5c0.4,0,0.8,0,1.1-0.1c-0.1-2.1-1-4.1-2.5-5.6
	C61.3,92.1,61,92.5,60.6,92.8"/>
<path fill="#46277A" d="M32.4,92.4c0.1-0.5,0-1-0.2-1.4L27.9,89c0.2,0.5,0.2,1.1,0,1.7c-0.1,0.5-0.1,1.1,0,1.6l5.1,2.3
	C32.4,94.1,32.1,93.2,32.4,92.4"/>
<path fill="none" stroke="#442775" stroke-width="0.176" stroke-linecap="round" stroke-linejoin="round" d="M32.4,92.4
	c0.1-0.5,0-1-0.2-1.4L27.9,89c0.2,0.5,0.2,1.1,0,1.7c-0.1,0.5-0.1,1.1,0,1.6l5.1,2.3C32.4,94.1,32.1,93.2,32.4,92.4"/>
<path fill="#46277A" d="M26.6,90c-0.2,0.5-0.3,1.1-0.1,1.6l-4.1-2.4c-0.1-0.6,0-1.1,0.2-1.7c0.3-0.5,0.3-1.1,0.2-1.7l3.8,2.3
	C26.7,88.9,26.7,89.5,26.6,90"/>
<path fill="none" stroke="#442775" stroke-width="0.176" stroke-linecap="round" stroke-linejoin="round" d="M26.6,90
	c-0.2,0.5-0.3,1.1-0.1,1.6l-4.1-2.4c-0.1-0.6,0-1.1,0.2-1.7c0.3-0.5,0.3-1.1,0.2-1.7l3.8,2.3C26.7,88.9,26.7,89.5,26.6,90"/>
<path fill="#46277A" d="M21.4,86.8c-0.3,0.5-0.4,1.1-0.3,1.6l-3.8-2.9c0-0.6,0.1-1.1,0.4-1.6c0.3-0.5,0.5-1.1,0.4-1.6l3.5,2.8
	C21.6,85.7,21.6,86.3,21.4,86.8"/>
<path fill="none" stroke="#442775" stroke-width="0.176" stroke-linecap="round" stroke-linejoin="round" d="M21.4,86.8
	c-0.3,0.5-0.4,1.1-0.3,1.6l-3.8-2.9c0-0.6,0.1-1.1,0.4-1.6c0.3-0.5,0.5-1.1,0.4-1.6l3.5,2.8C21.6,85.7,21.6,86.3,21.4,86.8"/>
<path fill="#46277A" d="M16.6,83c0.3-0.6,0.3-1.3,0.1-2L13.9,78c0,0.6-0.2,1.1-0.6,1.6c-0.3,0.5-0.6,1-0.6,1.6l3.4,3.3
	C16,84,16.2,83.4,16.6,83"/>
<path fill="none" stroke="#442775" stroke-width="0.176" stroke-linecap="round" stroke-linejoin="round" d="M16.6,83
	c0.3-0.6,0.3-1.3,0.1-2L13.9,78c0,0.6-0.2,1.1-0.6,1.6c-0.3,0.5-0.6,1-0.6,1.6l3.4,3.3C16,84,16.2,83.4,16.6,83"/>
<path fill="#46277A" d="M12.4,78.5c-0.4,0.4-0.7,0.9-0.7,1.5l-2.9-3.8c0.1-0.6,0.4-1.1,0.8-1.5c0.4-0.4,0.7-0.9,0.8-1.5l2.6,3.6
	C12.9,77.5,12.7,78,12.4,78.5"/>
<path fill="none" stroke="#442775" stroke-width="0.176" stroke-linecap="round" stroke-linejoin="round" d="M12.4,78.5
	c-0.4,0.4-0.7,0.9-0.7,1.5l-2.9-3.8c0.1-0.6,0.4-1.1,0.8-1.5c0.4-0.4,0.7-0.9,0.8-1.5l2.6,3.6C12.9,77.5,12.7,78,12.4,78.5"/>
<path fill="#46277A" d="M8.8,73.5c-0.5,0.3-0.8,0.8-0.9,1.4l-2.4-4.1c0.2-0.5,0.5-1,1-1.4c0.5-0.3,0.8-0.8,1-1.4L9.6,72
	C9.5,72.6,9.2,73.1,8.8,73.5"/>
<path fill="none" stroke="#442775" stroke-width="0.176" stroke-linecap="round" stroke-linejoin="round" d="M8.8,73.5
	c-0.5,0.3-0.8,0.8-0.9,1.4l-2.4-4.1c0.2-0.5,0.5-1,1-1.4c0.5-0.3,0.8-0.8,1-1.4L9.6,72C9.5,72.6,9.2,73.1,8.8,73.5"/>
<path fill="#46277A" d="M5.8,68.1c-0.5,0.3-0.9,0.7-1.1,1.2L2.9,65c0.3-0.5,0.7-0.9,1.2-1.2c0.5-0.2,0.9-0.7,1.2-1.2l1.6,4.2
	C6.6,67.3,6.3,67.8,5.8,68.1"/>
<path fill="none" stroke="#442775" stroke-width="0.176" stroke-linecap="round" stroke-linejoin="round" d="M5.8,68.1
	c-0.5,0.3-0.9,0.7-1.1,1.2L2.9,65c0.3-0.5,0.7-0.9,1.2-1.2c0.5-0.2,0.9-0.7,1.2-1.2l1.6,4.2C6.6,67.3,6.3,67.8,5.8,68.1"/>
<path fill="#46277A" d="M3.6,62.4c0.5-0.3,0.9-0.7,1.2-1.2l-1-4.3c-0.3,0.5-0.8,0.9-1.3,1c-0.5,0.2-1,0.6-1.3,1.1l1.2,4.6
	C2.7,63,3.1,62.6,3.6,62.4"/>
<path fill="none" stroke="#442775" stroke-width="0.176" stroke-linecap="round" stroke-linejoin="round" d="M3.6,62.4
	c0.5-0.3,0.9-0.7,1.2-1.2l-1-4.3c-0.3,0.5-0.8,0.9-1.3,1c-0.5,0.2-1,0.6-1.3,1.1l1.2,4.6C2.7,63,3.1,62.6,3.6,62.4"/>
<path fill="#46277A" d="M2.2,56.4c0.5-0.2,1-0.6,1.3-1.1l-0.5-4.4c-0.4,0.5-0.9,0.8-1.4,0.9c-0.5,0.1-1,0.5-1.4,0.9l0.6,4.7
	C1.2,56.9,1.6,56.5,2.2,56.4"/>
<path fill="none" stroke="#442775" stroke-width="0.176" stroke-linecap="round" stroke-linejoin="round" d="M2.2,56.4
	c0.5-0.2,1-0.6,1.3-1.1l-0.5-4.4c-0.4,0.5-0.9,0.8-1.4,0.9c-0.5,0.1-1,0.5-1.4,0.9l0.6,4.7C1.2,56.9,1.6,56.5,2.2,56.4"/>
<path fill="#46277A" d="M1.6,50.3c0.6-0.2,1.1-0.5,1.5-0.9l0.1-4.5c-0.4,0.4-1,0.6-1.5,0.7c-0.6,0.1-1.1,0.3-1.5,0.7l0,4.7
	C0.5,50.6,1,50.3,1.6,50.3"/>
<path fill="none" stroke="#442775" stroke-width="0.176" stroke-linecap="round" stroke-linejoin="round" d="M1.6,50.3
	c0.6-0.2,1.1-0.5,1.5-0.9l0.1-4.5c-0.4,0.4-1,0.6-1.5,0.7c-0.6,0.1-1.1,0.3-1.5,0.7l0,4.7C0.5,50.6,1,50.3,1.6,50.3"/>
<path fill="#46277A" d="M1.7,44.2c0.6-0.1,1.1-0.3,1.6-0.7L4,39.1c-0.5,0.3-1,0.5-1.6,0.5c-0.6,0-1.1,0.2-1.6,0.5l-0.6,4.7
	C0.6,44.3,1.2,44.1,1.7,44.2"/>
<path fill="none" stroke="#442775" stroke-width="0.176" stroke-linecap="round" stroke-linejoin="round" d="M1.7,44.2
	c0.6-0.1,1.1-0.3,1.6-0.7L4,39.1c-0.5,0.3-1,0.5-1.6,0.5c-0.6,0-1.1,0.2-1.6,0.5l-0.6,4.7C0.6,44.3,1.2,44.1,1.7,44.2"/>
<path fill="#46277A" d="M2.7,38.1c0.6,0,1.2-0.2,1.6-0.5l1.3-4.3c-0.5,0.3-1.1,0.4-1.7,0.2c-0.6-0.1-1.1,0-1.7,0.3l-1.2,4.6
	C1.6,38.1,2.1,38,2.7,38.1"/>
<path fill="none" stroke="#442775" stroke-width="0.176" stroke-linecap="round" stroke-linejoin="round" d="M2.7,38.1
	c0.6,0,1.2-0.2,1.6-0.5l1.3-4.3c-0.5,0.3-1.1,0.4-1.7,0.2c-0.6-0.1-1.1,0-1.7,0.3l-1.2,4.6C1.6,38.1,2.1,38,2.7,38.1"/>
<path fill="#46277A" d="M4.4,32.2c0.6,0.1,1.2,0,1.7-0.3L8,27.9c-0.5,0.2-1.1,0.2-1.7,0c-0.6-0.1-1.1-0.1-1.7,0l-1.8,4.4
	C3.3,32.1,3.9,32,4.4,32.2"/>
<path fill="none" stroke="#442775" stroke-width="0.176" stroke-linecap="round" stroke-linejoin="round" d="M4.4,32.2
	c0.6,0.1,1.2,0,1.7-0.3L8,27.9c-0.5,0.2-1.1,0.2-1.7,0c-0.6-0.1-1.1-0.1-1.7,0l-1.8,4.4C3.3,32.1,3.9,32,4.4,32.2"/>
<path fill="#46277A" d="M7,26.6c0.6,0.2,1.2,0.1,1.7,0l2.3-3.8c-0.6,0.1-1.2,0.1-1.7-0.2c-0.5-0.2-1.1-0.3-1.7-0.2l-2.4,4.1
	C5.9,26.3,6.4,26.4,7,26.6"/>
<path fill="none" stroke="#442775" stroke-width="0.176" stroke-linecap="round" stroke-linejoin="round" d="M7,26.6
	c0.6,0.2,1.2,0.1,1.7,0l2.3-3.8c-0.6,0.1-1.2,0.1-1.7-0.2c-0.5-0.2-1.1-0.3-1.7-0.2l-2.4,4.1C5.9,26.3,6.4,26.4,7,26.6"/>
<path fill="#46277A" d="M10.2,21.4c-0.5-0.3-1.1-0.4-1.6-0.3l2.9-3.8c0.6,0,1.1,0.1,1.6,0.4c0.5,0.3,1.1,0.5,1.6,0.4l-2.8,3.5
	C11.3,21.6,10.7,21.6,10.2,21.4"/>
<path fill="none" stroke="#442775" stroke-width="0.176" stroke-linecap="round" stroke-linejoin="round" d="M10.2,21.4
	c-0.5-0.3-1.1-0.4-1.6-0.3l2.9-3.8c0.6,0,1.1,0.1,1.6,0.4c0.5,0.3,1.1,0.5,1.6,0.4l-2.8,3.5C11.3,21.6,10.7,21.6,10.2,21.4"/>
<path fill="#46277A" d="M14,16.6c-0.4-0.4-1-0.5-1.6-0.5l3.3-3.4c0.6,0,1.1,0.3,1.6,0.6c0.4,0.4,1,0.6,1.6,0.6L15.7,17
	C15.1,17,14.5,16.9,14,16.6"/>
<path fill="none" stroke="#442775" stroke-width="0.176" stroke-linecap="round" stroke-linejoin="round" d="M14,16.6
	c-0.4-0.4-1-0.5-1.6-0.5l3.3-3.4c0.6,0,1.1,0.3,1.6,0.6c0.4,0.4,1,0.6,1.6,0.6L15.7,17C15.1,17,14.5,16.9,14,16.6"/>
<path fill="#46277A" d="M75.6,10.2c0.3-0.5,0.4-1.1,0.3-1.6l3.8,2.9c0,0.6-0.1,1.1-0.4,1.6c-0.3,0.5-0.5,1.1-0.4,1.6l-3.5-2.8
	C75.4,11.3,75.4,10.7,75.6,10.2"/>
<path fill="none" stroke="#442775" stroke-width="0.176" stroke-linecap="round" stroke-linejoin="round" d="M75.6,10.2
	c0.3-0.5,0.4-1.1,0.3-1.6l3.8,2.9c0,0.6-0.1,1.1-0.4,1.6c-0.3,0.5-0.5,1.1-0.4,1.6l-3.5-2.8C75.4,11.3,75.4,10.7,75.6,10.2"/>
<path fill="#46277A" d="M80.4,14c-0.3,0.5-0.4,1.1-0.4,1.7l3.1,3.2c0-0.6,0.2-1.1,0.6-1.6c0.3-0.5,0.6-1,0.6-1.6l-3.4-3.3
	C81,13,80.8,13.6,80.4,14"/>
<path fill="none" stroke="#442775" stroke-width="0.176" stroke-linecap="round" stroke-linejoin="round" d="M80.4,14
	c-0.3,0.5-0.4,1.1-0.4,1.7l3.1,3.2c0-0.6,0.2-1.1,0.6-1.6c0.3-0.5,0.6-1,0.6-1.6l-3.4-3.3C81,13,80.8,13.6,80.4,14"/>
<path fill="#46277A" d="M84.6,18.5c-0.4,0.5-0.6,1-0.6,1.6l2.6,3.6c0.1-0.6,0.4-1.1,0.8-1.5c0.4-0.4,0.7-0.9,0.8-1.5L85.3,17
	C85.3,17.6,85.1,18.1,84.6,18.5"/>
<path fill="none" stroke="#442775" stroke-width="0.176" stroke-linecap="round" stroke-linejoin="round" d="M84.6,18.5
	c-0.4,0.5-0.6,1-0.6,1.6l2.6,3.6c0.1-0.6,0.4-1.1,0.8-1.5c0.4-0.4,0.7-0.9,0.8-1.5L85.3,17C85.3,17.6,85.1,18.1,84.6,18.5"/>
<path fill="#46277A" d="M88.2,23.5c-0.4,0.4-0.7,0.9-0.8,1.5l2.1,3.9c0.2-0.6,0.5-1,1-1.4c0.5-0.3,0.8-0.8,1-1.4l-2.4-4.1
	C89,22.7,88.7,23.1,88.2,23.5"/>
<path fill="none" stroke="#442775" stroke-width="0.176" stroke-linecap="round" stroke-linejoin="round" d="M88.2,23.5
	c-0.4,0.4-0.7,0.9-0.8,1.5l2.1,3.9c0.2-0.6,0.5-1,1-1.4c0.5-0.3,0.8-0.8,1-1.4l-2.4-4.1C89,22.7,88.7,23.1,88.2,23.5"/>
<path fill="#46277A" d="M91.2,28.9c-0.5,0.4-0.8,0.8-1,1.4l1.6,4.2c0.2-0.5,0.6-1,1.2-1.2c0.5-0.3,0.9-0.7,1.2-1.2l-1.8-4.4
	C92.1,28.2,91.7,28.6,91.2,28.9"/>
<path fill="none" stroke="#442775" stroke-width="0.176" stroke-linecap="round" stroke-linejoin="round" d="M91.2,28.9
	c-0.5,0.4-0.8,0.8-1,1.4l1.6,4.2c0.2-0.5,0.6-1,1.2-1.2c0.5-0.3,0.9-0.7,1.2-1.2l-1.8-4.4C92.1,28.2,91.7,28.6,91.2,28.9"/>
<path fill="#46277A" d="M93.4,34.6c-0.5,0.3-0.9,0.7-1.2,1.2l1,4.3c0.3-0.5,0.8-0.9,1.3-1c0.5-0.2,1-0.6,1.3-1.1l-1.2-4.6
	C94.3,34,93.9,34.4,93.4,34.6"/>
<path fill="none" stroke="#442775" stroke-width="0.176" stroke-linecap="round" stroke-linejoin="round" d="M93.4,34.6
	c-0.5,0.3-0.9,0.7-1.2,1.2l1,4.3c0.3-0.5,0.8-0.9,1.3-1c0.5-0.2,1-0.6,1.3-1.1l-1.2-4.6C94.3,34,93.9,34.4,93.4,34.6"/>
<path fill="#46277A" d="M94.8,40.6c-0.5,0.2-1,0.6-1.3,1.1l0.5,4.4c0.4-0.5,0.9-0.8,1.4-0.9c0.5-0.1,1-0.5,1.4-0.9l-0.6-4.7
	C95.8,40.1,95.4,40.5,94.8,40.6"/>
<path fill="none" stroke="#442775" stroke-width="0.176" stroke-linecap="round" stroke-linejoin="round" d="M94.8,40.6
	c-0.5,0.2-1,0.6-1.3,1.1l0.5,4.4c0.4-0.5,0.9-0.8,1.4-0.9c0.5-0.1,1-0.5,1.4-0.9l-0.6-4.7C95.8,40.1,95.4,40.5,94.8,40.6"/>
<path fill="#46277A" d="M95.4,46.7c-0.6,0.2-1.1,0.5-1.5,0.9l-0.1,4.5c0.4-0.4,1-0.6,1.5-0.7c0.6-0.1,1.1-0.3,1.5-0.7l0-4.7
	C96.5,46.4,96,46.7,95.4,46.7"/>
<path fill="none" stroke="#442775" stroke-width="0.176" stroke-linecap="round" stroke-linejoin="round" d="M95.4,46.7
	c-0.6,0.2-1.1,0.5-1.5,0.9l-0.1,4.5c0.4-0.4,1-0.6,1.5-0.7c0.6-0.1,1.1-0.3,1.5-0.7l0-4.7C96.5,46.4,96,46.7,95.4,46.7"/>
<path fill="#46277A" d="M95.3,52.8c-0.6,0.1-1.1,0.3-1.6,0.7L93,57.9c0.5-0.3,1-0.5,1.6-0.5c0.6,0,1.1-0.2,1.6-0.5l0.6-4.7
	C96.4,52.7,95.8,52.9,95.3,52.8"/>
<path fill="none" stroke="#442775" stroke-width="0.176" stroke-linecap="round" stroke-linejoin="round" d="M95.3,52.8
	c-0.6,0.1-1.1,0.3-1.6,0.7L93,57.9c0.5-0.3,1-0.5,1.6-0.5c0.6,0,1.1-0.2,1.6-0.5l0.6-4.7C96.4,52.7,95.8,52.9,95.3,52.8"/>
<path fill="#46277A" d="M94.3,58.9c-0.6,0-1.2,0.2-1.6,0.5l-1.3,4.3c0.5-0.3,1.1-0.4,1.7-0.2c0.6,0.1,1.1,0,1.7-0.3l1.2-4.6
	C95.4,58.9,94.9,59,94.3,58.9"/>
<path fill="none" stroke="#442775" stroke-width="0.176" stroke-linecap="round" stroke-linejoin="round" d="M94.3,58.9
	c-0.6,0-1.2,0.2-1.6,0.5l-1.3,4.3c0.5-0.3,1.1-0.4,1.7-0.2c0.6,0.1,1.1,0,1.7-0.3l1.2-4.6C95.4,58.9,94.9,59,94.3,58.9"/>
<path fill="#46277A" d="M92.6,64.8c-0.6-0.1-1.2,0-1.7,0.3L89,69.1c0.5-0.2,1.1-0.2,1.7,0c0.6,0.1,1.1,0.1,1.7,0l1.8-4.4
	C93.7,64.9,93.1,65,92.6,64.8"/>
<path fill="none" stroke="#442775" stroke-width="0.176" stroke-linecap="round" stroke-linejoin="round" d="M92.6,64.8
	c-0.6-0.1-1.2,0-1.7,0.3L89,69.1c0.5-0.2,1.1-0.2,1.7,0c0.6,0.1,1.1,0.1,1.7,0l1.8-4.4C93.7,64.9,93.1,65,92.6,64.8"/>
<path fill="#46277A" d="M90,70.4c-0.6-0.2-1.2-0.1-1.7,0L86,74.3c0.6-0.1,1.2-0.1,1.7,0.2c0.5,0.2,1.1,0.3,1.7,0.2l2.4-4.1
	C91.1,70.7,90.6,70.6,90,70.4"/>
<path fill="none" stroke="#442775" stroke-width="0.176" stroke-linecap="round" stroke-linejoin="round" d="M90,70.4
	c-0.6-0.2-1.2-0.1-1.7,0L86,74.3c0.6-0.1,1.2-0.1,1.7,0.2c0.5,0.2,1.1,0.3,1.7,0.2l2.4-4.1C91.1,70.7,90.6,70.6,90,70.4"/>
<path fill="#46277A" d="M86.8,75.6c-0.5-0.2-1.1-0.3-1.7-0.2l-2.8,3.5c0.6-0.1,1.2,0.1,1.6,0.4c0.5,0.3,1.1,0.4,1.6,0.4l2.9-3.8
	C87.9,76.1,87.3,75.9,86.8,75.6"/>
<path fill="none" stroke="#442775" stroke-width="0.176" stroke-linecap="round" stroke-linejoin="round" d="M86.8,75.6
	c-0.5-0.2-1.1-0.3-1.7-0.2l-2.8,3.5c0.6-0.1,1.2,0.1,1.6,0.4c0.5,0.3,1.1,0.4,1.6,0.4l2.9-3.8C87.9,76.1,87.3,75.9,86.8,75.6"/>
<path fill="#46277A" d="M83,80.4c-0.5-0.3-1.1-0.4-1.7-0.4L78,83.1c0.6,0,1.1,0.2,1.6,0.6c0.5,0.3,1,0.6,1.6,0.6l3.3-3.4
	C84,81,83.4,80.8,83,80.4"/>
<path fill="none" stroke="#442775" stroke-width="0.176" stroke-linecap="round" stroke-linejoin="round" d="M83,80.4
	c-0.5-0.3-1.1-0.4-1.7-0.4L78,83.1c0.6,0,1.1,0.2,1.6,0.6c0.5,0.3,1,0.6,1.6,0.6l3.3-3.4C84,81,83.4,80.8,83,80.4"/>
<path fill="#46277A" d="M78.5,84.6c-0.5-0.4-1-0.6-1.6-0.6l-3.6,2.6c0.6,0.1,1.1,0.4,1.5,0.8c0.4,0.4,0.9,0.7,1.5,0.8l3.8-2.9
	C79.4,85.3,78.9,85.1,78.5,84.6"/>
<path fill="none" stroke="#442775" stroke-width="0.176" stroke-linecap="round" stroke-linejoin="round" d="M78.5,84.6
	c-0.5-0.4-1-0.6-1.6-0.6l-3.6,2.6c0.6,0.1,1.1,0.4,1.5,0.8c0.4,0.4,0.9,0.7,1.5,0.8l3.8-2.9C79.4,85.3,78.9,85.1,78.5,84.6z"/>
<path fill="#46277A" d="M54.9,90.5c0.1,0.6,0.3,1.1,0.7,1.6c1.2,0.1,2.4,0.5,3.4,1.4c0-0.7,0.3-1.4,0.8-1.8c0.3-0.3,0.5-0.6,0.6-1
	c-1.4-1-3-1.6-4.8-1.6c-0.4,0-0.8,0-1.2,0C54.7,89.5,54.9,90,54.9,90.5"/>
<path fill="none" stroke="#442775" stroke-width="0.176" stroke-linecap="round" stroke-linejoin="round" d="M54.9,90.5
	c0.1,0.6,0.3,1.1,0.7,1.6c1.2,0.1,2.4,0.5,3.4,1.4c0-0.7,0.3-1.4,0.8-1.8c0.3-0.3,0.5-0.6,0.6-1c-1.4-1-3-1.6-4.8-1.6
	c-0.4,0-0.8,0-1.2,0C54.7,89.5,54.9,90,54.9,90.5z"/>
<path fill="#46277A" d="M73.5,88.2c-0.4-0.4-0.9-0.7-1.5-0.8l-3.9,2.1c0.6,0.2,1,0.5,1.4,1c0.3,0.5,0.8,0.8,1.4,1l4.1-2.4
	C74.3,89,73.9,88.7,73.5,88.2"/>
<path fill="none" stroke="#442775" stroke-width="0.176" stroke-linecap="round" stroke-linejoin="round" d="M73.5,88.2
	c-0.4-0.4-0.9-0.7-1.5-0.8l-3.9,2.1c0.6,0.2,1,0.5,1.4,1c0.3,0.5,0.8,0.8,1.4,1l4.1-2.4C74.3,89,73.9,88.7,73.5,88.2"/>
<path fill="#46277A" d="M68.1,91.2c-0.4-0.5-0.8-0.8-1.4-1l-3.8,1.6c0.6,0.8,1,1.8,1.3,2.8l5.1-2.3C68.8,92.1,68.4,91.7,68.1,91.2"
	/>
<path fill="none" stroke="#442775" stroke-width="0.176" stroke-linecap="round" stroke-linejoin="round" d="M68.1,91.2
	c-0.4-0.5-0.8-0.8-1.4-1l-3.8,1.6c0.6,0.8,1,1.8,1.3,2.8l5.1-2.3C68.8,92.1,68.4,91.7,68.1,91.2z"/>
<path fill="#46277A" d="M36.8,54.8c1.9-0.4,3.8-0.6,5.7-0.8c-0.8-4.1-2.6-8-5.2-11.3c-1.4-1.7-3-3.2-4.9-4.3
	c-1.7-1.1-3.7-1.6-5.7-1.7c-3.8,0.1-7.1,2.3-8.7,5.7c-0.8,1.7-1.2,3.6-1.3,5.4c-0.1,5.8,4.3,10.7,10,11.1c-0.9-2.7,0-5.6,2.3-7.3
	c1.4-0.8,3.1-0.8,4.4,0C34.7,52.5,35.8,53.5,36.8,54.8"/>
<path fill="none" stroke="#442775" stroke-width="0.176" stroke-linecap="round" stroke-linejoin="round" d="M36.8,54.8
	c1.9-0.4,3.8-0.6,5.7-0.8c-0.8-4.1-2.6-8-5.2-11.3c-1.4-1.7-3-3.2-4.9-4.3c-1.7-1.1-3.7-1.6-5.7-1.7c-3.8,0.1-7.1,2.3-8.7,5.7
	c-0.8,1.7-1.2,3.6-1.3,5.4c-0.1,5.8,4.3,10.7,10,11.1c-0.9-2.7,0-5.6,2.3-7.3c1.4-0.8,3.1-0.8,4.4,0C34.7,52.5,35.8,53.5,36.8,54.8z
	"/>
<path fill="#46277A" d="M60.2,54.8c-1.9-0.4-3.8-0.6-5.7-0.8c0.8-4.1,2.6-8,5.2-11.3c1.4-1.7,3-3.2,4.9-4.3c1.7-1.1,3.7-1.6,5.7-1.7
	c3.8,0.1,7.1,2.3,8.7,5.7c0.8,1.7,1.2,3.6,1.3,5.4c0.1,5.8-4.3,10.7-10,11.1c0.9-2.7,0-5.6-2.3-7.3c-1.4-0.8-3.1-0.8-4.4,0
	C62.3,52.5,61.2,53.5,60.2,54.8"/>
<path fill="none" stroke="#442775" stroke-width="0.176" stroke-linecap="round" stroke-linejoin="round" d="M60.2,54.8
	c-1.9-0.4-3.8-0.6-5.7-0.8c0.8-4.1,2.6-8,5.2-11.3c1.4-1.7,3-3.2,4.9-4.3c1.7-1.1,3.7-1.6,5.7-1.7c3.8,0.1,7.1,2.3,8.7,5.7
	c0.8,1.7,1.2,3.6,1.3,5.4c0.1,5.8-4.3,10.7-10,11.1c0.9-2.7,0-5.6-2.3-7.3c-1.4-0.8-3.1-0.8-4.4,0C62.3,52.5,61.2,53.5,60.2,54.8"/>
<path fill="#46277A" d="M48.5,69.5l-1.3-9.1c-1.1,0-2.1-0.1-3.2-0.1c-0.5,3.1-1.8,6-3.9,8.4c2.1,3.1,5,5.6,8.4,7.1
	c3.4-1.6,6.3-4,8.4-7.1c-2-2.4-3.4-5.3-3.8-8.4c-1.1,0.1-2.1,0.1-3.2,0.1L48.5,69.5z"/>
<path fill="none" stroke="#442775" stroke-width="0.176" stroke-linecap="round" stroke-linejoin="round" d="M48.5,69.5l-1.3-9.1
	c-1.1,0-2.1-0.1-3.2-0.1c-0.5,3.1-1.8,6-3.9,8.4c2.1,3.1,5,5.6,8.4,7.1c3.4-1.6,6.3-4,8.4-7.1c-2-2.4-3.4-5.3-3.8-8.4
	c-1.1,0.1-2.1,0.1-3.2,0.1L48.5,69.5z"/>
<path fill="#46277A" d="M38.4,59.7c1.4,0.2,2.9,0.4,4.3,0.5c-0.2,1.6-0.7,3.2-1.5,4.6c-0.8,1.5-2,2.6-3.5,3.2
	c-1.4,0.4-2.9,0.2-4.1-0.7c-1.2-0.8-2-2.1-2.2-3.5c1.6,0.5,3.3,0.4,4.8-0.4c0.8-0.4,1.4-1,1.7-1.8C38.2,61,38.4,60.4,38.4,59.7"/>
<path fill="none" stroke="#442775" stroke-width="0.176" stroke-linecap="round" stroke-linejoin="round" d="M38.4,59.7
	c1.4,0.2,2.9,0.4,4.3,0.5c-0.2,1.6-0.7,3.2-1.5,4.6c-0.8,1.5-2,2.6-3.5,3.2c-1.4,0.4-2.9,0.2-4.1-0.7c-1.2-0.8-2-2.1-2.2-3.5
	c1.6,0.5,3.3,0.4,4.8-0.4c0.8-0.4,1.4-1,1.7-1.8C38.2,61,38.4,60.4,38.4,59.7"/>
<path fill="#46277A" d="M58.6,59.7c-1.4,0.2-2.9,0.4-4.3,0.5c0.2,1.6,0.7,3.2,1.5,4.6c0.8,1.5,2,2.6,3.5,3.2
	c1.4,0.4,2.9,0.2,4.1-0.7c1.2-0.8,2-2.1,2.2-3.5c-1.6,0.5-3.3,0.4-4.8-0.4c-0.8-0.4-1.4-1-1.7-1.8C58.8,61,58.6,60.4,58.6,59.7"/>
<path fill="none" stroke="#442775" stroke-width="0.176" stroke-linecap="round" stroke-linejoin="round" d="M58.6,59.7
	c-1.4,0.2-2.9,0.4-4.3,0.5c0.2,1.6,0.7,3.2,1.5,4.6c0.8,1.5,2,2.6,3.5,3.2c1.4,0.4,2.9,0.2,4.1-0.7c1.2-0.8,2-2.1,2.2-3.5
	c-1.6,0.5-3.3,0.4-4.8-0.4c-0.8-0.4-1.4-1-1.7-1.8C58.8,61,58.6,60.4,58.6,59.7"/>
<path fill="#46277A" d="M34.3,57.1c0,1.2,6.3,2.3,14.2,2.3c7.8,0,14.2-1,14.2-2.3c0-1.2-6.3-2.3-14.2-2.3
	C40.7,54.9,34.3,55.9,34.3,57.1"/>
<ellipse fill="none" stroke="#442775" stroke-width="0.176" stroke-linecap="round" stroke-linejoin="round" cx="48.5" cy="57.1" rx="14.2" ry="2.3"/>
<path fill="#46277A" d="M48.5,29.6l-1.6,24.2c-1,0-2,0.1-3,0.1c-0.2-2.2-0.7-4.3-1.5-6.4c-0.8-2.5-1.8-5-2.8-7.5
	c-1-2.4-1.8-4.8-2.3-7.3c-1-4,0.2-8.3,3.1-11.2c1.7-1.6,3.4-3.2,5.2-4.7c1.4-1.1,2.4-2.6,2.9-4.3c0.5,1.7,1.5,3.1,2.9,4.3
	c1.8,1.5,3.6,3.1,5.2,4.7c2.9,3,4,7.2,3.1,11.2c-0.5,2.5-1.3,5-2.3,7.3c-1.1,2.4-2,4.9-2.8,7.5c-0.7,2.1-1.2,4.2-1.5,6.4
	c-1-0.1-2-0.1-3-0.1L48.5,29.6z"/>
<path fill="none" d="M48.5,29.6l-1.6,24.2c-1,0-2,0.1-3,0.1c-0.2-2.2-0.7-4.3-1.5-6.4c-0.8-2.5-1.8-5-2.8-7.5
	c-1-2.4-1.8-4.8-2.3-7.3c-1-4,0.2-8.3,3.1-11.2c1.7-1.6,3.4-3.2,5.2-4.7c1.4-1.1,2.4-2.6,2.9-4.3c0.5,1.7,1.5,3.1,2.9,4.3
	c1.8,1.5,3.6,3.1,5.2,4.7c2.9,3,4,7.2,3.1,11.2c-0.5,2.5-1.3,5-2.3,7.3c-1.1,2.4-2,4.9-2.8,7.5c-0.7,2.1-1.2,4.2-1.5,6.4
	c-1-0.1-2-0.1-3-0.1L48.5,29.6z"/>
<polygon fill="#FCBD00" points="28.8,45.3 25.7,45.3 24.7,42.3 23.7,45.3 20.5,45.3 23.1,47.1 22.1,50.1 24.7,48.3 27.2,50.1 
	26.3,47.1 "/>
<polyline fill="none" stroke="#FBB900" stroke-width="0.176" stroke-linecap="round" stroke-linejoin="round" points="28.8,45.3 
	25.7,45.3 24.7,42.3 23.7,45.3 20.5,45.3 23.1,47.1 22.1,50.1 24.7,48.3 27.2,50.1 26.3,47.1 28.8,45.3 "/>
<polygon fill="#FCBD00" points="76.5,45.3 73.3,45.3 72.3,42.3 71.3,45.3 68.2,45.3 70.7,47.1 69.8,50.1 72.3,48.3 74.9,50.1 
	73.9,47.1 "/>
<polyline fill="none" stroke="#FBB900" stroke-width="0.176" stroke-linecap="round" stroke-linejoin="round" points="76.5,45.3 
	73.3,45.3 72.3,42.3 71.3,45.3 68.2,45.3 70.7,47.1 69.8,50.1 72.3,48.3 74.9,50.1 73.9,47.1 76.5,45.3 "/>
</svg>
